<svg xmlns="http://www.w3.org/2000/svg" xmlns:xlink="http://www.w3.org/1999/xlink" viewBox="0 0 960 583.99"><defs><style>.cls-1,.cls-222,.cls-223{fill:none;}.cls-2,.cls-222,.cls-223{stroke-miterlimit:10;}.cls-2{stroke-width:17.6px;fill:url(#Gradiente_sem_nome_12);stroke:url(#Gradiente_sem_nome_12-2);}.cls-3{clip-path:url(#clip-path);}.cls-4{fill:#00b9ff;}.cls-5{fill:#00b8ff;}.cls-6{fill:#00b7ff;}.cls-7{fill:#00b6ff;}.cls-8{fill:#00b5ff;}.cls-9{fill:#00b4ff;}.cls-10{fill:#00b3ff;}.cls-11{fill:#00b2ff;}.cls-12{fill:#00b1ff;}.cls-13{fill:#00b0ff;}.cls-14{fill:#00afff;}.cls-15{fill:#00aeff;}.cls-16{fill:#00adff;}.cls-17{fill:#00acff;}.cls-18{fill:#00abff;}.cls-19{fill:#0af;}.cls-20{fill:#00a9ff;}.cls-21{fill:#00a8ff;}.cls-22{fill:#00a7ff;}.cls-23{fill:#00a6ff;}.cls-24{fill:#00a5ff;}.cls-25{fill:#00a4ff;}.cls-26{fill:#00a3ff;}.cls-27{fill:#00a2ff;}.cls-28{fill:#00a1ff;}.cls-29{fill:#00a0ff;}.cls-30{fill:#009fff;}.cls-31{fill:#009eff;}.cls-32{fill:#009dff;}.cls-33{fill:#009cff;}.cls-34{fill:#009bff;}.cls-35{fill:#009aff;}.cls-36{fill:#09f;}.cls-37{fill:#0098ff;}.cls-38{fill:#0097ff;}.cls-39{fill:#0096ff;}.cls-40{fill:#0095ff;}.cls-41{fill:#0094ff;}.cls-42{fill:#0093ff;}.cls-43{fill:#0092ff;}.cls-44{fill:#0091ff;}.cls-45{fill:#0090ff;}.cls-46{fill:#008fff;}.cls-47{fill:#008eff;}.cls-48{fill:#008dff;}.cls-49{fill:#008cff;}.cls-50{fill:#008bff;}.cls-51{fill:#008aff;}.cls-52{fill:#0089ff;}.cls-53{fill:#08f;}.cls-54{fill:#0087ff;}.cls-55{fill:#0086ff;}.cls-56{fill:#0085ff;}.cls-57{fill:#0084ff;}.cls-58{fill:#0083ff;}.cls-59{fill:#0082ff;}.cls-60{fill:#0081ff;}.cls-61{fill:#007fff;}.cls-62{fill:#007eff;}.cls-63{fill:#007dff;}.cls-64{fill:#007cff;}.cls-65{fill:#007bff;}.cls-66{fill:#007aff;}.cls-67{fill:#0079ff;}.cls-68{fill:#0078ff;}.cls-69{fill:#07f;}.cls-70{fill:#0076ff;}.cls-71{fill:#0075ff;}.cls-72{fill:#0074ff;}.cls-73{fill:#0073ff;}.cls-74{fill:#0072ff;}.cls-75{fill:#0071ff;}.cls-76{fill:#0070ff;}.cls-77{fill:#006fff;}.cls-78{fill:#006eff;}.cls-79{fill:#006dff;}.cls-80{fill:#006cff;}.cls-81{fill:#006bff;}.cls-82{fill:#006aff;}.cls-83{fill:#0069ff;}.cls-84{fill:#0068ff;}.cls-85{fill:#0067ff;}.cls-86{fill:#06f;}.cls-87{fill:#0065ff;}.cls-88{fill:#0064ff;}.cls-89{fill:#0063ff;}.cls-90{fill:#0062ff;}.cls-91{fill:#0061ff;}.cls-92{fill:#0060ff;}.cls-93{fill:#005fff;}.cls-94{fill:#005eff;}.cls-95{fill:#005dff;}.cls-96{fill:#005cff;}.cls-97{fill:#005bff;}.cls-98{fill:#005aff;}.cls-99{fill:#0059ff;}.cls-100{fill:#0058ff;}.cls-101{fill:#0057ff;}.cls-102{fill:#0056ff;}.cls-103{fill:#05f;}.cls-104{fill:#0054ff;}.cls-105{fill:#0053ff;}.cls-106{fill:#0052ff;}.cls-107{fill:#0051ff;}.cls-108{fill:#0050ff;}.cls-109{fill:#004fff;}.cls-110{fill:#004eff;}.cls-111{fill:#004dff;}.cls-112{fill:#004cff;}.cls-113{fill:#004bff;}.cls-114{fill:#004aff;}.cls-115{fill:#0049ff;}.cls-116{fill:#0048ff;}.cls-117{fill:#0047ff;}.cls-118{fill:#0046ff;}.cls-119{fill:#0045ff;}.cls-120{fill:#04f;}.cls-121{fill:#0043ff;}.cls-122{fill:#0042ff;}.cls-123{fill:#0041ff;}.cls-124{fill:#0040ff;}.cls-125{fill:#003fff;}.cls-126{fill:#003eff;}.cls-127{fill:#003dff;}.cls-128{fill:#003cff;}.cls-129{fill:#003bff;}.cls-130{fill:#003aff;}.cls-131{fill:#0039ff;}.cls-132{fill:#0038ff;}.cls-133{fill:#0037ff;}.cls-134{fill:#0036ff;}.cls-135{fill:#0035ff;}.cls-136{fill:#0034ff;}.cls-137{fill:#03f;}.cls-138{fill:#0032ff;}.cls-139{fill:#0031ff;}.cls-140{fill:#0030ff;}.cls-141{fill:#002fff;}.cls-142{fill:#002eff;}.cls-143{fill:#002dff;}.cls-144{fill:#002cff;}.cls-145{fill:#002bff;}.cls-146{fill:#002aff;}.cls-147{fill:#0029ff;}.cls-148{fill:#0028ff;}.cls-149{fill:#0027ff;}.cls-150{fill:#0026ff;}.cls-151{fill:#0025ff;}.cls-152{fill:#0024ff;}.cls-153{fill:#0023ff;}.cls-154{fill:#02f;}.cls-155{fill:#0021ff;}.cls-156{fill:#0020ff;}.cls-157{fill:#001fff;}.cls-158{fill:#001eff;}.cls-159{fill:#001dff;}.cls-160{fill:#001cff;}.cls-161{fill:#001bff;}.cls-162{fill:#001aff;}.cls-163{fill:#0019ff;}.cls-164{fill:#0018ff;}.cls-165{fill:#0017ff;}.cls-166{fill:#0016ff;}.cls-167{fill:#0015ff;}.cls-168{fill:#0014ff;}.cls-169{fill:#0013ff;}.cls-170{fill:#0012ff;}.cls-171{fill:#01f;}.cls-172{fill:#0010ff;}.cls-173{fill:#000fff;}.cls-174{fill:#000eff;}.cls-175{fill:#000dff;}.cls-176{fill:#000cff;}.cls-177{fill:#000bff;}.cls-178{fill:#000aff;}.cls-179{fill:#0009ff;}.cls-180{fill:#0008ff;}.cls-181{fill:#0007ff;}.cls-182{fill:#0006ff;}.cls-183{fill:#0005ff;}.cls-184{fill:#0004ff;}.cls-185{fill:#0003ff;}.cls-186{fill:#0002ff;}.cls-187{fill:#0001ff;}.cls-188{fill:blue;}.cls-189{fill:#00daff;}.cls-190{fill:#00d9ff;}.cls-191{fill:#00d8ff;}.cls-192{fill:#00d7ff;}.cls-193{fill:#00d6ff;}.cls-194{fill:#00d5ff;}.cls-195{fill:#00d4ff;}.cls-196{fill:#00d3ff;}.cls-197{fill:#00d2ff;}.cls-198{fill:#00d1ff;}.cls-199{fill:#00d0ff;}.cls-200{fill:#00cfff;}.cls-201{fill:#00ceff;}.cls-202{fill:#00cdff;}.cls-203{fill:#0cf;}.cls-204{fill:#00cbff;}.cls-205{fill:#00caff;}.cls-206{fill:#00c9ff;}.cls-207{fill:#00c8ff;}.cls-208{fill:#00c7ff;}.cls-209{fill:#00c6ff;}.cls-210{fill:#00c5ff;}.cls-211{fill:#00c4ff;}.cls-212{fill:#00c3ff;}.cls-213{fill:#00c2ff;}.cls-214{fill:#00c1ff;}.cls-215{fill:#00c0ff;}.cls-216{fill:#00bfff;}.cls-217{fill:#00beff;}.cls-218{fill:#00bdff;}.cls-219{fill:#00bcff;}.cls-220{fill:#0bf;}.cls-221{fill:#00baff;}.cls-222{stroke-width:16.45px;stroke:url(#Gradiente_sem_nome_12-3);}.cls-223{stroke-width:60.03px;stroke:url(#Gradiente_sem_nome_12-4);}</style><linearGradient id="Gradiente_sem_nome_12" x1="73.06" y1="530.14" x2="1880.89" y2="-317.42" gradientUnits="userSpaceOnUse"><stop offset="0" stop-color="aqua"/><stop offset="1" stop-color="blue"/></linearGradient><linearGradient id="Gradiente_sem_nome_12-2" x1="0" y1="438.51" x2="510.8" y2="438.51" xlink:href="#Gradiente_sem_nome_12"/><clipPath id="clip-path"><path class="cls-1" d="M690.87,30c-132,0-239.09,107.05-239.09,239.12a240.16,240.16,0,0,0,4.81,47.92A239.1,239.1,0,0,0,690.87,508.24C822.94,508.24,930,401.16,930,269.13S822.94,30,690.87,30Zm0,441.86A202.85,202.85,0,0,1,490.8,302.12a204.93,204.93,0,0,1-2.67-33c0-112,90.79-202.75,202.74-202.75s202.75,90.77,202.75,202.75S802.85,471.87,690.87,471.87Z"/></clipPath><linearGradient id="Gradiente_sem_nome_12-3" x1="443.56" y1="269.13" x2="938.21" y2="269.13" xlink:href="#Gradiente_sem_nome_12"/><linearGradient id="Gradiente_sem_nome_12-4" x1="421.77" y1="269.13" x2="960" y2="269.13" xlink:href="#Gradiente_sem_nome_12"/></defs><title>Ativo 5ESSE2</title><g id="Camada_2" data-name="Camada 2"><g id="Camada_1-2" data-name="Camada 1"><path class="cls-2" d="M498.12,383.82,461,400Q260.63,487.45,60.31,574.92c-20,1.82-37.89-5.65-46.35-19.56-10.19-16.69-5-40,13.11-56.62l404.61-176.6,37.85-16.51A222.23,222.23,0,0,0,498.12,383.82Z"/><g class="cls-3"><polygon class="cls-4" points="901.84 59.66 900.71 58.16 901.84 58.16 901.84 59.66"/><polygon class="cls-5" points="901.84 62.25 898.75 58.16 900.71 58.16 901.84 59.66 901.84 62.25"/><polygon class="cls-6" points="901.84 64.84 896.79 58.16 898.75 58.16 901.84 62.25 901.84 64.84"/><polygon class="cls-7" points="901.84 67.44 894.84 58.16 896.79 58.16 901.84 64.84 901.84 67.44"/><polygon class="cls-8" points="901.84 70.03 892.88 58.16 894.84 58.16 901.84 67.44 901.84 70.03"/><polygon class="cls-9" points="901.84 72.63 890.92 58.16 892.88 58.16 901.84 70.03 901.84 72.63"/><polygon class="cls-10" points="901.84 75.22 888.96 58.16 890.92 58.16 901.84 72.63 901.84 75.22"/><polygon class="cls-11" points="901.84 77.82 887 58.16 888.96 58.16 901.84 75.22 901.84 77.82"/><polygon class="cls-12" points="901.84 80.41 885.04 58.16 887 58.16 901.84 77.82 901.84 80.41"/><polygon class="cls-13" points="901.84 83 883.09 58.16 885.04 58.16 901.84 80.41 901.84 83"/><polygon class="cls-14" points="901.84 85.6 881.13 58.16 883.09 58.16 901.84 83 901.84 85.6"/><polygon class="cls-15" points="901.84 88.19 879.17 58.16 881.13 58.16 901.84 85.6 901.84 88.19"/><polygon class="cls-16" points="901.84 90.79 877.21 58.16 879.17 58.16 901.84 88.19 901.84 90.79"/><polygon class="cls-17" points="901.84 93.38 875.25 58.16 877.21 58.16 901.84 90.79 901.84 93.38"/><polygon class="cls-18" points="901.84 95.98 873.29 58.16 875.25 58.16 901.84 93.38 901.84 95.98"/><polygon class="cls-19" points="901.84 98.57 871.34 58.16 873.29 58.16 901.84 95.98 901.84 98.57"/><polygon class="cls-20" points="901.84 101.17 869.38 58.16 871.34 58.16 901.84 98.57 901.84 101.17"/><polygon class="cls-21" points="901.84 103.76 867.42 58.16 869.38 58.16 901.84 101.17 901.84 103.76"/><polygon class="cls-22" points="901.84 106.35 865.46 58.16 867.42 58.16 901.84 103.76 901.84 106.35"/><polygon class="cls-23" points="901.84 108.95 863.5 58.16 865.46 58.16 901.84 106.35 901.84 108.95"/><polygon class="cls-24" points="901.84 111.54 861.54 58.16 863.5 58.16 901.84 108.95 901.84 111.54"/><polygon class="cls-25" points="901.84 114.14 859.58 58.16 861.54 58.16 901.84 111.54 901.84 114.14"/><polygon class="cls-26" points="901.84 116.73 857.63 58.16 859.58 58.16 901.84 114.14 901.84 116.73"/><polygon class="cls-27" points="901.84 119.33 855.67 58.16 857.63 58.16 901.84 116.73 901.84 119.33"/><polygon class="cls-28" points="901.84 121.92 853.71 58.16 855.67 58.16 901.84 119.33 901.84 121.92"/><polygon class="cls-29" points="901.84 124.51 851.75 58.16 853.71 58.16 901.84 121.92 901.84 124.51"/><polygon class="cls-30" points="901.84 127.11 849.79 58.16 851.75 58.16 901.84 124.51 901.84 127.11"/><polygon class="cls-31" points="901.84 129.7 847.83 58.16 849.79 58.16 901.84 127.11 901.84 129.7"/><polygon class="cls-32" points="901.84 132.3 845.88 58.16 847.83 58.16 901.84 129.7 901.84 132.3"/><polygon class="cls-33" points="901.84 134.89 843.92 58.16 845.88 58.16 901.84 132.3 901.84 134.89"/><polygon class="cls-34" points="901.84 137.49 841.96 58.16 843.92 58.16 901.84 134.89 901.84 137.49"/><polygon class="cls-35" points="901.84 140.08 840 58.16 841.96 58.16 901.84 137.49 901.84 140.08"/><polygon class="cls-36" points="901.84 142.67 838.04 58.16 840 58.16 901.84 140.08 901.84 142.67"/><polygon class="cls-37" points="901.84 145.27 836.08 58.16 838.04 58.16 901.84 142.67 901.84 145.27"/><polygon class="cls-38" points="901.84 147.86 834.13 58.16 836.08 58.16 901.84 145.27 901.84 147.86"/><polygon class="cls-39" points="901.84 150.46 832.17 58.16 834.13 58.16 901.84 147.86 901.84 150.46"/><polygon class="cls-40" points="901.84 153.05 830.21 58.16 832.17 58.16 901.84 150.46 901.84 153.05"/><polygon class="cls-41" points="901.84 155.64 828.25 58.16 830.21 58.16 901.84 153.05 901.84 155.64"/><polygon class="cls-42" points="901.84 158.24 826.29 58.16 828.25 58.16 901.84 155.64 901.84 158.24"/><polygon class="cls-43" points="901.84 160.83 824.33 58.16 826.29 58.16 901.84 158.24 901.84 160.83"/><polygon class="cls-44" points="901.84 163.43 822.37 58.16 824.33 58.16 901.84 160.83 901.84 163.43"/><polygon class="cls-45" points="901.84 166.02 820.42 58.16 822.37 58.16 901.84 163.43 901.84 166.02"/><polygon class="cls-46" points="901.84 168.62 818.46 58.16 820.42 58.16 901.84 166.02 901.84 168.62"/><polygon class="cls-47" points="901.84 171.21 816.5 58.16 818.46 58.16 901.84 168.62 901.84 171.21"/><polygon class="cls-48" points="901.84 173.8 814.54 58.16 816.5 58.16 901.84 171.21 901.84 173.8"/><polygon class="cls-49" points="901.84 176.4 812.58 58.16 814.54 58.16 901.84 173.8 901.84 176.4"/><polygon class="cls-50" points="901.84 178.99 810.62 58.16 812.58 58.16 901.84 176.4 901.84 178.99"/><polygon class="cls-51" points="901.84 181.59 808.66 58.16 810.62 58.16 901.84 178.99 901.84 181.59"/><polygon class="cls-52" points="901.84 184.18 806.71 58.16 808.66 58.16 901.84 181.59 901.84 184.18"/><polygon class="cls-53" points="901.84 186.78 804.75 58.16 806.71 58.16 901.84 184.18 901.84 186.78"/><polygon class="cls-54" points="901.84 189.37 802.79 58.16 804.75 58.16 901.84 186.78 901.84 189.37"/><polygon class="cls-55" points="901.84 191.96 800.83 58.16 802.79 58.16 901.84 189.37 901.84 191.96"/><polygon class="cls-56" points="901.84 194.56 798.87 58.16 800.83 58.16 901.84 191.96 901.84 194.56"/><polygon class="cls-57" points="901.84 197.15 796.91 58.16 798.87 58.16 901.84 194.56 901.84 197.15"/><polygon class="cls-58" points="901.84 199.75 794.96 58.16 796.91 58.16 901.84 197.15 901.84 199.75"/><polygon class="cls-59" points="901.84 202.34 793 58.16 794.96 58.16 901.84 199.75 901.84 202.34"/><polygon class="cls-60" points="901.84 204.94 791.04 58.16 793 58.16 901.84 202.34 901.84 204.94"/><polygon class="cls-61" points="901.84 207.53 789.08 58.16 791.04 58.16 901.84 204.94 901.84 207.53"/><polygon class="cls-62" points="901.84 210.12 787.12 58.16 789.08 58.16 901.84 207.53 901.84 210.12"/><polygon class="cls-63" points="901.84 212.72 785.16 58.16 787.12 58.16 901.84 210.12 901.84 212.72"/><polygon class="cls-64" points="901.84 215.31 783.21 58.16 785.16 58.16 901.84 212.72 901.84 215.31"/><polygon class="cls-65" points="901.84 217.91 781.25 58.16 783.21 58.16 901.84 215.31 901.84 217.91"/><polygon class="cls-66" points="901.84 220.5 779.29 58.16 781.25 58.16 901.84 217.91 901.84 220.5"/><polygon class="cls-67" points="901.84 223.09 777.33 58.16 779.29 58.16 901.84 220.5 901.84 223.09"/><polygon class="cls-68" points="901.84 225.69 775.37 58.16 777.33 58.16 901.84 223.09 901.84 225.69"/><polygon class="cls-69" points="901.84 228.28 773.41 58.16 775.37 58.16 901.84 225.69 901.84 228.28"/><polygon class="cls-70" points="901.84 230.88 771.46 58.16 773.41 58.16 901.84 228.28 901.84 230.88"/><polygon class="cls-71" points="901.84 233.47 769.5 58.16 771.46 58.16 901.84 230.88 901.84 233.47"/><polygon class="cls-72" points="901.84 236.07 767.54 58.16 769.5 58.16 901.84 233.47 901.84 236.07"/><polygon class="cls-73" points="901.84 238.66 765.58 58.16 767.54 58.16 901.84 236.07 901.84 238.66"/><polygon class="cls-74" points="901.84 241.25 763.62 58.16 765.58 58.16 901.84 238.66 901.84 241.25"/><polygon class="cls-75" points="901.84 243.85 761.66 58.16 763.62 58.16 901.84 241.25 901.84 243.85"/><polygon class="cls-76" points="901.84 246.44 759.71 58.16 761.66 58.16 901.84 243.85 901.84 246.44"/><polygon class="cls-77" points="901.84 249.04 757.75 58.16 759.71 58.16 901.84 246.44 901.84 249.04"/><polygon class="cls-78" points="901.84 251.63 755.79 58.16 757.75 58.16 901.84 249.04 901.84 251.63"/><polygon class="cls-79" points="901.84 254.23 753.83 58.16 755.79 58.16 901.84 251.63 901.84 254.23"/><polygon class="cls-80" points="901.84 256.82 751.87 58.16 753.83 58.16 901.84 254.23 901.84 256.82"/><polygon class="cls-81" points="901.84 259.42 749.91 58.16 751.87 58.16 901.84 256.82 901.84 259.42"/><polygon class="cls-82" points="901.84 262.01 747.95 58.16 749.91 58.16 901.84 259.42 901.84 262.01"/><polygon class="cls-83" points="901.84 264.6 746 58.16 747.95 58.16 901.84 262.01 901.84 264.6"/><polygon class="cls-84" points="901.84 267.2 744.04 58.16 746 58.16 901.84 264.6 901.84 267.2"/><polygon class="cls-85" points="901.84 269.79 742.08 58.16 744.04 58.16 901.84 267.2 901.84 269.79"/><polygon class="cls-86" points="901.84 272.39 740.12 58.16 742.08 58.16 901.84 269.79 901.84 272.39"/><polygon class="cls-87" points="901.84 274.98 738.16 58.16 740.12 58.16 901.84 272.39 901.84 274.98"/><polygon class="cls-88" points="901.84 277.57 736.2 58.16 738.16 58.16 901.84 274.98 901.84 277.57"/><polygon class="cls-89" points="901.84 280.17 734.25 58.16 736.2 58.16 901.84 277.57 901.84 280.17"/><polygon class="cls-90" points="901.84 282.76 732.29 58.16 734.25 58.16 901.84 280.17 901.84 282.76"/><polygon class="cls-91" points="901.84 285.36 730.33 58.16 732.29 58.16 901.84 282.76 901.84 285.36"/><polygon class="cls-92" points="901.84 287.95 728.37 58.16 730.33 58.16 901.84 285.36 901.84 287.95"/><polygon class="cls-93" points="901.84 290.55 726.41 58.16 728.37 58.16 901.84 287.95 901.84 290.55"/><polygon class="cls-94" points="901.84 293.14 724.45 58.16 726.41 58.16 901.84 290.55 901.84 293.14"/><polygon class="cls-95" points="901.84 295.74 722.5 58.16 724.45 58.16 901.84 293.14 901.84 295.74"/><polygon class="cls-96" points="901.84 298.33 720.54 58.16 722.5 58.16 901.84 295.74 901.84 298.33"/><polygon class="cls-97" points="901.84 300.92 718.58 58.16 720.54 58.16 901.84 298.33 901.84 300.92"/><polygon class="cls-98" points="901.84 303.52 716.62 58.16 718.58 58.16 901.84 300.92 901.84 303.52"/><polygon class="cls-99" points="901.84 306.11 714.66 58.16 716.62 58.16 901.84 303.52 901.84 306.11"/><polygon class="cls-100" points="901.84 308.71 712.7 58.16 714.66 58.16 901.84 306.11 901.84 308.71"/><polygon class="cls-101" points="901.84 311.3 710.75 58.16 712.7 58.16 901.84 308.71 901.84 311.3"/><polygon class="cls-102" points="901.84 313.89 708.79 58.16 710.75 58.16 901.84 311.3 901.84 313.89"/><polygon class="cls-103" points="901.84 316.49 706.83 58.16 708.79 58.16 901.84 313.89 901.84 316.49"/><polygon class="cls-104" points="901.84 319.08 704.87 58.16 706.83 58.16 901.84 316.49 901.84 319.08"/><polygon class="cls-105" points="901.84 321.68 702.91 58.16 704.87 58.16 901.84 319.08 901.84 321.68"/><polygon class="cls-106" points="901.84 324.27 700.95 58.16 702.91 58.16 901.84 321.68 901.84 324.27"/><polygon class="cls-107" points="901.84 326.87 698.99 58.16 700.95 58.16 901.84 324.27 901.84 326.87"/><polygon class="cls-108" points="901.84 329.46 697.04 58.16 698.99 58.16 901.84 326.87 901.84 329.46"/><polygon class="cls-109" points="901.84 332.06 695.08 58.16 697.04 58.16 901.84 329.46 901.84 332.06"/><polygon class="cls-110" points="901.84 334.65 693.12 58.16 695.08 58.16 901.84 332.06 901.84 334.65"/><polygon class="cls-111" points="901.84 337.24 691.16 58.16 693.12 58.16 901.84 334.65 901.84 337.24"/><polygon class="cls-112" points="901.84 339.84 689.2 58.16 691.16 58.16 901.84 337.24 901.84 339.84"/><polygon class="cls-113" points="901.84 342.43 687.24 58.16 689.2 58.16 901.84 339.84 901.84 342.43"/><polygon class="cls-114" points="901.84 345.03 685.28 58.16 687.24 58.16 901.84 342.43 901.84 345.03"/><polygon class="cls-115" points="901.84 347.62 683.33 58.16 685.28 58.16 901.84 345.03 901.84 347.62"/><polygon class="cls-116" points="901.84 350.21 681.37 58.16 683.33 58.16 901.84 347.62 901.84 350.21"/><polygon class="cls-117" points="901.84 352.81 679.41 58.16 681.37 58.16 901.84 350.21 901.84 352.81"/><polygon class="cls-118" points="901.84 355.4 677.45 58.16 679.41 58.16 901.84 352.81 901.84 355.4"/><polygon class="cls-119" points="901.84 358 675.49 58.16 677.45 58.16 901.84 355.4 901.84 358"/><polygon class="cls-120" points="901.84 360.59 673.53 58.16 675.49 58.16 901.84 358 901.84 360.59"/><polygon class="cls-121" points="901.84 363.19 671.58 58.16 673.53 58.16 901.84 360.59 901.84 363.19"/><polygon class="cls-122" points="901.84 365.78 669.62 58.16 671.58 58.16 901.84 363.19 901.84 365.78"/><polygon class="cls-123" points="901.84 368.37 667.66 58.16 669.62 58.16 901.84 365.78 901.84 368.37"/><polygon class="cls-124" points="901.84 370.97 665.7 58.16 667.66 58.16 901.84 368.37 901.84 370.97"/><polygon class="cls-125" points="901.84 373.56 663.74 58.16 665.7 58.16 901.84 370.97 901.84 373.56"/><polygon class="cls-126" points="901.84 376.16 661.78 58.16 663.74 58.16 901.84 373.56 901.84 376.16"/><polygon class="cls-127" points="901.84 378.75 659.83 58.16 661.78 58.16 901.84 376.16 901.84 378.75"/><polygon class="cls-128" points="901.84 381.35 657.87 58.16 659.83 58.16 901.84 378.75 901.84 381.35"/><polygon class="cls-129" points="901.84 383.94 655.91 58.16 657.87 58.16 901.84 381.35 901.84 383.94"/><polygon class="cls-130" points="901.84 386.53 653.95 58.16 655.91 58.16 901.84 383.94 901.84 386.53"/><polygon class="cls-131" points="901.84 389.13 651.99 58.16 653.95 58.16 901.84 386.53 901.84 389.13"/><polygon class="cls-132" points="901.84 391.72 650.03 58.16 651.99 58.16 901.84 389.13 901.84 391.72"/><polygon class="cls-133" points="901.84 394.32 648.08 58.16 650.03 58.16 901.84 391.72 901.84 394.32"/><polygon class="cls-134" points="901.84 396.91 646.12 58.16 648.08 58.16 901.84 394.32 901.84 396.91"/><polygon class="cls-135" points="901.84 399.51 644.16 58.16 646.12 58.16 901.84 396.91 901.84 399.51"/><polygon class="cls-136" points="901.84 402.1 642.2 58.16 644.16 58.16 901.84 399.51 901.84 402.1"/><polygon class="cls-137" points="901.84 403.41 901.23 403.88 640.24 58.16 642.2 58.16 901.84 402.1 901.84 403.41"/><polygon class="cls-138" points="901.23 403.88 899.98 404.82 638.28 58.16 640.24 58.16 901.23 403.88"/><polygon class="cls-139" points="899.98 404.82 898.73 405.76 636.33 58.16 638.28 58.16 899.98 404.82"/><polygon class="cls-140" points="898.73 405.76 897.48 406.7 634.37 58.16 636.33 58.16 898.73 405.76"/><polygon class="cls-141" points="897.48 406.7 896.24 407.64 632.41 58.16 634.37 58.16 897.48 406.7"/><polygon class="cls-142" points="896.24 407.64 894.99 408.59 630.45 58.16 632.41 58.16 896.24 407.64"/><polygon class="cls-143" points="894.99 408.59 893.74 409.53 628.49 58.16 630.45 58.16 894.99 408.59"/><polygon class="cls-144" points="893.74 409.53 892.49 410.47 626.53 58.16 628.49 58.16 893.74 409.53"/><polygon class="cls-145" points="892.49 410.47 891.25 411.41 624.57 58.16 626.53 58.16 892.49 410.47"/><polygon class="cls-146" points="891.25 411.41 890 412.35 622.62 58.16 624.57 58.16 891.25 411.41"/><polygon class="cls-147" points="890 412.35 888.75 413.29 620.66 58.16 622.62 58.16 890 412.35"/><polygon class="cls-148" points="888.75 413.29 887.5 414.24 618.7 58.16 620.66 58.16 888.75 413.29"/><polygon class="cls-149" points="887.5 414.24 886.26 415.18 616.74 58.16 618.7 58.16 887.5 414.24"/><polygon class="cls-150" points="886.26 415.18 885.01 416.12 614.78 58.16 616.74 58.16 886.26 415.18"/><polygon class="cls-151" points="885.01 416.12 883.76 417.06 612.82 58.16 614.78 58.16 885.01 416.12"/><polygon class="cls-152" points="883.76 417.06 882.51 418 610.87 58.16 612.82 58.16 883.76 417.06"/><polygon class="cls-153" points="882.51 418 881.27 418.94 608.91 58.16 610.87 58.16 882.51 418"/><polygon class="cls-154" points="881.27 418.94 880.02 419.89 606.95 58.16 608.91 58.16 881.27 418.94"/><polygon class="cls-155" points="880.02 419.89 878.77 420.83 604.99 58.16 606.95 58.16 880.02 419.89"/><polygon class="cls-156" points="878.77 420.83 877.52 421.77 603.03 58.16 604.99 58.16 878.77 420.83"/><polygon class="cls-157" points="877.52 421.77 876.28 422.71 601.07 58.16 603.03 58.16 877.52 421.77"/><polygon class="cls-158" points="876.28 422.71 875.03 423.65 599.12 58.16 601.07 58.16 876.28 422.71"/><polygon class="cls-159" points="875.03 423.65 873.78 424.6 597.16 58.16 599.12 58.16 875.03 423.65"/><polygon class="cls-160" points="873.78 424.6 872.53 425.54 595.2 58.16 597.16 58.16 873.78 424.6"/><polygon class="cls-161" points="872.53 425.54 871.29 426.48 593.24 58.16 595.2 58.16 872.53 425.54"/><polygon class="cls-162" points="871.29 426.48 870.04 427.42 591.28 58.16 593.24 58.16 871.29 426.48"/><polygon class="cls-163" points="870.04 427.42 868.79 428.36 589.32 58.16 591.28 58.16 870.04 427.42"/><polygon class="cls-164" points="868.79 428.36 867.54 429.3 587.36 58.16 589.32 58.16 868.79 428.36"/><polygon class="cls-165" points="867.54 429.3 866.3 430.25 585.41 58.16 587.36 58.16 867.54 429.3"/><polygon class="cls-166" points="866.3 430.25 865.05 431.19 583.45 58.16 585.41 58.16 866.3 430.25"/><polygon class="cls-167" points="865.05 431.19 863.8 432.13 581.5 58.17 581.51 58.16 583.45 58.16 865.05 431.19"/><rect class="cls-168" x="721.24" y="11.34" width="1.56" height="468.55" transform="translate(-2.22 484.61) rotate(-37.05)"/><rect class="cls-169" x="720" y="12.28" width="1.56" height="468.55" transform="translate(-3.04 484.05) rotate(-37.05)"/><rect class="cls-170" x="718.75" y="13.23" width="1.56" height="468.55" transform="translate(-3.86 483.48) rotate(-37.05)"/><rect class="cls-171" x="717.5" y="14.17" width="1.56" height="468.55" transform="translate(-4.68 482.92) rotate(-37.05)"/><rect class="cls-172" x="716.25" y="15.11" width="1.56" height="468.55" transform="translate(-5.5 482.36) rotate(-37.05)"/><rect class="cls-173" x="715.01" y="16.05" width="1.56" height="468.55" transform="translate(-6.32 481.8) rotate(-37.05)"/><rect class="cls-174" x="713.76" y="16.99" width="1.56" height="468.55" transform="matrix(0.8, -0.6, 0.6, 0.8, -7.14, 481.24)"/><rect class="cls-175" x="712.51" y="17.93" width="1.56" height="468.55" transform="translate(-7.96 480.68) rotate(-37.05)"/><rect class="cls-176" x="711.26" y="18.88" width="1.56" height="468.55" transform="matrix(0.8, -0.6, 0.6, 0.8, -8.78, 480.11)"/><rect class="cls-177" x="710.02" y="19.82" width="1.56" height="468.55" transform="translate(-9.6 479.55) rotate(-37.05)"/><rect class="cls-178" x="708.77" y="20.76" width="1.56" height="468.55" transform="translate(-10.41 478.99) rotate(-37.05)"/><rect class="cls-179" x="707.52" y="21.7" width="1.56" height="468.55" transform="translate(-11.23 478.43) rotate(-37.05)"/><rect class="cls-180" x="706.27" y="22.64" width="1.56" height="468.55" transform="translate(-12.05 477.87) rotate(-37.05)"/><rect class="cls-181" x="705.03" y="23.59" width="1.56" height="468.55" transform="translate(-12.87 477.31) rotate(-37.05)"/><rect class="cls-182" x="703.78" y="24.53" width="1.56" height="468.55" transform="translate(-13.69 476.75) rotate(-37.05)"/><rect class="cls-183" x="702.53" y="25.47" width="1.56" height="468.55" transform="translate(-14.51 476.18) rotate(-37.05)"/><rect class="cls-184" x="701.28" y="26.41" width="1.56" height="468.55" transform="translate(-15.33 475.62) rotate(-37.05)"/><rect class="cls-185" x="700.04" y="27.35" width="1.56" height="468.55" transform="matrix(0.8, -0.6, 0.6, 0.8, -16.15, 475.06)"/><rect class="cls-186" x="698.79" y="28.29" width="1.56" height="468.55" transform="translate(-16.97 474.5) rotate(-37.05)"/><rect class="cls-187" x="697.54" y="29.24" width="1.56" height="468.55" transform="translate(-17.79 473.94) rotate(-37.05)"/><rect class="cls-188" x="696.29" y="30.18" width="1.56" height="468.55" transform="translate(-18.61 473.38) rotate(-37.05)"/><polygon class="cls-188" points="837.6 451.91 800.26 480.1 479.9 480.1 479.9 134.86 555.3 77.94 837.6 451.91"/><polygon class="cls-189" points="938.21 22.22 937.88 21.79 938.21 21.79 938.21 22.22"/><polygon class="cls-190" points="938.21 24.82 935.93 21.79 937.88 21.79 938.21 22.22 938.21 24.82"/><polygon class="cls-191" points="938.21 27.41 933.97 21.79 935.93 21.79 938.21 24.82 938.21 27.41"/><polygon class="cls-192" points="938.21 30 932.01 21.79 933.97 21.79 938.21 27.41 938.21 30"/><polygon class="cls-193" points="938.21 32.6 930.05 21.79 932.01 21.79 938.21 30 938.21 32.6"/><polygon class="cls-194" points="938.21 35.19 928.09 21.79 930.05 21.79 938.21 32.6 938.21 35.19"/><polygon class="cls-195" points="938.21 37.79 926.13 21.79 928.09 21.79 938.21 35.19 938.21 37.79"/><polygon class="cls-196" points="938.21 40.38 924.18 21.79 926.13 21.79 938.21 37.79 938.21 40.38"/><polygon class="cls-197" points="938.21 42.98 922.22 21.79 924.18 21.79 938.21 40.38 938.21 42.98"/><polygon class="cls-198" points="938.21 45.57 920.26 21.79 922.22 21.79 938.21 42.98 938.21 45.57"/><polygon class="cls-199" points="938.21 48.16 918.3 21.79 920.26 21.79 938.21 45.57 938.21 48.16"/><polygon class="cls-200" points="938.21 50.76 916.34 21.79 918.3 21.79 938.21 48.16 938.21 50.76"/><polygon class="cls-201" points="938.21 53.35 914.38 21.79 916.34 21.79 938.21 50.76 938.21 53.35"/><polygon class="cls-202" points="938.21 55.95 912.43 21.79 914.38 21.79 938.21 53.35 938.21 55.95"/><polygon class="cls-203" points="938.21 58.54 910.47 21.79 912.43 21.79 938.21 55.95 938.21 58.54"/><polygon class="cls-204" points="938.21 61.13 908.51 21.79 910.47 21.79 938.21 58.54 938.21 61.13"/><polygon class="cls-205" points="938.21 63.73 906.55 21.79 908.51 21.79 938.21 61.13 938.21 63.73"/><polygon class="cls-206" points="938.21 66.32 904.59 21.79 906.55 21.79 938.21 63.73 938.21 66.32"/><polygon class="cls-207" points="938.21 68.92 902.63 21.79 904.59 21.79 938.21 66.32 938.21 68.92"/><polygon class="cls-208" points="938.21 71.51 900.67 21.79 902.63 21.79 938.21 68.92 938.21 71.51"/><polygon class="cls-209" points="938.21 74.11 898.72 21.79 900.67 21.79 938.21 71.51 938.21 74.11"/><polygon class="cls-210" points="938.21 76.7 896.76 21.79 898.72 21.79 938.21 74.11 938.21 76.7"/><polygon class="cls-211" points="938.21 79.29 894.8 21.79 896.76 21.79 938.21 76.7 938.21 79.29"/><polygon class="cls-212" points="938.21 81.89 892.84 21.79 894.8 21.79 938.21 79.29 938.21 81.89"/><polygon class="cls-213" points="938.21 84.48 890.88 21.79 892.84 21.79 938.21 81.89 938.21 84.48"/><polygon class="cls-214" points="938.21 87.08 888.92 21.79 890.88 21.79 938.21 84.48 938.21 87.08"/><polygon class="cls-215" points="938.21 89.67 886.97 21.79 888.92 21.79 938.21 87.08 938.21 89.67"/><polygon class="cls-216" points="938.21 92.27 885.01 21.79 886.97 21.79 938.21 89.67 938.21 92.27"/><polygon class="cls-217" points="938.21 94.86 883.05 21.79 885.01 21.79 938.21 92.27 938.21 94.86"/><polygon class="cls-218" points="938.21 97.45 881.09 21.79 883.05 21.79 938.21 94.86 938.21 97.45"/><polygon class="cls-219" points="938.21 100.05 879.13 21.79 881.09 21.79 938.21 97.45 938.21 100.05"/><polygon class="cls-220" points="938.21 102.64 877.17 21.79 879.13 21.79 938.21 100.05 938.21 102.64"/><polygon class="cls-221" points="938.21 105.24 875.22 21.79 877.17 21.79 938.21 102.64 938.21 105.24"/><polygon class="cls-4" points="938.21 107.83 873.26 21.79 875.22 21.79 938.21 105.24 938.21 107.83"/><polygon class="cls-5" points="938.21 110.43 871.3 21.79 873.26 21.79 938.21 107.83 938.21 110.43"/><polygon class="cls-6" points="938.21 113.02 869.34 21.79 871.3 21.79 938.21 110.43 938.21 113.02"/><polygon class="cls-7" points="938.21 115.61 867.38 21.79 869.34 21.79 938.21 113.02 938.21 115.61"/><polygon class="cls-8" points="938.21 118.21 865.42 21.79 867.38 21.79 938.21 115.61 938.21 118.21"/><polygon class="cls-9" points="938.21 120.8 863.47 21.79 865.42 21.79 938.21 118.21 938.21 120.8"/><polygon class="cls-10" points="938.21 123.4 861.51 21.79 863.47 21.79 938.21 120.8 938.21 123.4"/><polygon class="cls-11" points="938.21 125.99 859.55 21.79 861.51 21.79 938.21 123.4 938.21 125.99"/><polygon class="cls-12" points="938.21 128.59 857.59 21.79 859.55 21.79 938.21 125.99 938.21 128.59"/><polygon class="cls-13" points="938.21 131.18 855.63 21.79 857.59 21.79 938.21 128.59 938.21 131.18"/><polygon class="cls-14" points="938.21 133.77 853.67 21.79 855.63 21.79 938.21 131.18 938.21 133.77"/><polygon class="cls-15" points="938.21 136.37 851.72 21.79 853.67 21.79 938.21 133.77 938.21 136.37"/><polygon class="cls-16" points="938.21 138.96 849.76 21.79 851.72 21.79 938.21 136.37 938.21 138.96"/><polygon class="cls-17" points="938.21 141.56 847.8 21.79 849.76 21.79 938.21 138.96 938.21 141.56"/><polygon class="cls-18" points="938.21 144.15 845.84 21.79 847.8 21.79 938.21 141.56 938.21 144.15"/><polygon class="cls-19" points="938.21 146.75 843.88 21.79 845.84 21.79 938.21 144.15 938.21 146.75"/><polygon class="cls-20" points="938.21 149.34 841.92 21.79 843.88 21.79 938.21 146.75 938.21 149.34"/><polygon class="cls-21" points="938.21 151.93 839.96 21.79 841.92 21.79 938.21 149.34 938.21 151.93"/><polygon class="cls-22" points="938.21 154.53 838.01 21.79 839.96 21.79 938.21 151.93 938.21 154.53"/><polygon class="cls-23" points="938.21 157.12 836.05 21.79 838.01 21.79 938.21 154.53 938.21 157.12"/><polygon class="cls-24" points="938.21 159.72 834.09 21.79 836.05 21.79 938.21 157.12 938.21 159.72"/><polygon class="cls-25" points="938.21 162.31 832.13 21.79 834.09 21.79 938.21 159.72 938.21 162.31"/><polygon class="cls-26" points="938.21 164.91 830.17 21.79 832.13 21.79 938.21 162.31 938.21 164.91"/><polygon class="cls-27" points="938.21 167.5 828.21 21.79 830.17 21.79 938.21 164.91 938.21 167.5"/><polygon class="cls-28" points="938.21 170.09 826.25 21.79 828.21 21.79 938.21 167.5 938.21 170.09"/><polygon class="cls-29" points="938.21 172.69 824.3 21.79 826.25 21.79 938.21 170.09 938.21 172.69"/><polygon class="cls-30" points="938.21 175.28 822.34 21.79 824.3 21.79 938.21 172.69 938.21 175.28"/><polygon class="cls-31" points="938.21 177.88 820.38 21.79 822.34 21.79 938.21 175.28 938.21 177.88"/><polygon class="cls-32" points="938.21 180.47 818.42 21.79 820.38 21.79 938.21 177.88 938.21 180.47"/><polygon class="cls-33" points="938.21 183.06 816.46 21.79 818.42 21.79 938.21 180.47 938.21 183.06"/><polygon class="cls-34" points="938.21 185.66 814.5 21.79 816.46 21.79 938.21 183.06 938.21 185.66"/><polygon class="cls-35" points="938.21 188.25 812.55 21.79 814.5 21.79 938.21 185.66 938.21 188.25"/><polygon class="cls-36" points="938.21 190.85 810.59 21.79 812.55 21.79 938.21 188.25 938.21 190.85"/><polygon class="cls-37" points="938.21 193.44 808.63 21.79 810.59 21.79 938.21 190.85 938.21 193.44"/><polygon class="cls-38" points="938.21 196.04 806.67 21.79 808.63 21.79 938.21 193.44 938.21 196.04"/><polygon class="cls-39" points="938.21 198.63 804.71 21.79 806.67 21.79 938.21 196.04 938.21 198.63"/><polygon class="cls-40" points="938.21 201.22 802.75 21.79 804.71 21.79 938.21 198.63 938.21 201.22"/><polygon class="cls-41" points="938.21 203.82 800.8 21.79 802.75 21.79 938.21 201.22 938.21 203.82"/><polygon class="cls-42" points="938.21 206.41 798.84 21.79 800.8 21.79 938.21 203.82 938.21 206.41"/><polygon class="cls-43" points="938.21 209.01 796.88 21.79 798.84 21.79 938.21 206.41 938.21 209.01"/><polygon class="cls-44" points="938.21 211.6 794.92 21.79 796.88 21.79 938.21 209.01 938.21 211.6"/><polygon class="cls-45" points="938.21 214.2 792.96 21.79 794.92 21.79 938.21 211.6 938.21 214.2"/><polygon class="cls-46" points="938.21 216.79 791 21.79 792.96 21.79 938.21 214.2 938.21 216.79"/><polygon class="cls-47" points="938.21 219.38 789.04 21.79 791 21.79 938.21 216.79 938.21 219.38"/><polygon class="cls-48" points="938.21 221.98 787.09 21.79 789.04 21.79 938.21 219.38 938.21 221.98"/><polygon class="cls-49" points="938.21 224.57 785.13 21.79 787.09 21.79 938.21 221.98 938.21 224.57"/><polygon class="cls-50" points="938.21 227.17 783.17 21.79 785.13 21.79 938.21 224.57 938.21 227.17"/><polygon class="cls-51" points="938.21 229.76 781.21 21.79 783.17 21.79 938.21 227.17 938.21 229.76"/><polygon class="cls-52" points="938.21 232.36 779.25 21.79 781.21 21.79 938.21 229.76 938.21 232.36"/><polygon class="cls-53" points="938.21 234.95 777.29 21.79 779.25 21.79 938.21 232.36 938.21 234.95"/><polygon class="cls-54" points="938.21 237.54 775.34 21.79 777.29 21.79 938.21 234.95 938.21 237.54"/><polygon class="cls-55" points="938.21 240.14 773.38 21.79 775.34 21.79 938.21 237.54 938.21 240.14"/><polygon class="cls-56" points="938.21 242.73 771.42 21.79 773.38 21.79 938.21 240.14 938.21 242.73"/><polygon class="cls-57" points="938.21 245.33 769.46 21.79 771.42 21.79 938.21 242.73 938.21 245.33"/><polygon class="cls-58" points="938.21 247.92 767.5 21.79 769.46 21.79 938.21 245.33 938.21 247.92"/><polygon class="cls-59" points="938.21 250.52 765.54 21.79 767.5 21.79 938.21 247.92 938.21 250.52"/><polygon class="cls-60" points="938.21 253.11 763.59 21.79 765.54 21.79 938.21 250.52 938.21 253.11"/><polygon class="cls-61" points="938.21 255.71 761.63 21.79 763.59 21.79 938.21 253.11 938.21 255.71"/><polygon class="cls-62" points="938.21 258.3 759.67 21.79 761.63 21.79 938.21 255.71 938.21 258.3"/><polygon class="cls-63" points="938.21 260.89 757.71 21.79 759.67 21.79 938.21 258.3 938.21 260.89"/><polygon class="cls-64" points="938.21 263.49 755.75 21.79 757.71 21.79 938.21 260.89 938.21 263.49"/><polygon class="cls-65" points="938.21 266.08 753.79 21.79 755.75 21.79 938.21 263.49 938.21 266.08"/><polygon class="cls-66" points="938.21 268.68 751.84 21.79 753.79 21.79 938.21 266.08 938.21 268.68"/><polygon class="cls-67" points="938.21 271.27 749.88 21.79 751.84 21.79 938.21 268.68 938.21 271.27"/><polygon class="cls-68" points="938.21 273.87 747.92 21.79 749.88 21.79 938.21 271.27 938.21 273.87"/><polygon class="cls-69" points="938.21 276.46 745.96 21.79 747.92 21.79 938.21 273.87 938.21 276.46"/><polygon class="cls-70" points="938.21 279.05 744 21.79 745.96 21.79 938.21 276.46 938.21 279.05"/><polygon class="cls-71" points="938.21 281.65 742.04 21.79 744 21.79 938.21 279.05 938.21 281.65"/><polygon class="cls-72" points="938.21 284.24 740.09 21.79 742.04 21.79 938.21 281.65 938.21 284.24"/><polygon class="cls-73" points="938.21 286.84 738.13 21.79 740.09 21.79 938.21 284.24 938.21 286.84"/><polygon class="cls-74" points="938.21 289.43 736.17 21.79 738.13 21.79 938.21 286.84 938.21 289.43"/><polygon class="cls-75" points="938.21 292.02 734.21 21.79 736.17 21.79 938.21 289.43 938.21 292.02"/><polygon class="cls-76" points="938.21 294.62 732.25 21.79 734.21 21.79 938.21 292.02 938.21 294.62"/><polygon class="cls-77" points="938.21 297.21 730.29 21.79 732.25 21.79 938.21 294.62 938.21 297.21"/><polygon class="cls-78" points="938.21 299.81 728.33 21.79 730.29 21.79 938.21 297.21 938.21 299.81"/><polygon class="cls-79" points="938.21 302.4 726.38 21.79 728.33 21.79 938.21 299.81 938.21 302.4"/><polygon class="cls-80" points="938.21 305 724.42 21.79 726.38 21.79 938.21 302.4 938.21 305"/><polygon class="cls-81" points="938.21 307.59 722.46 21.79 724.42 21.79 938.21 305 938.21 307.59"/><polygon class="cls-82" points="938.21 310.18 720.5 21.79 722.46 21.79 938.21 307.59 938.21 310.18"/><polygon class="cls-83" points="938.21 312.78 718.54 21.79 720.5 21.79 938.21 310.18 938.21 312.78"/><polygon class="cls-84" points="938.21 315.37 716.58 21.79 718.54 21.79 938.21 312.78 938.21 315.37"/><polygon class="cls-85" points="938.21 317.97 714.63 21.79 716.58 21.79 938.21 315.37 938.21 317.97"/><polygon class="cls-86" points="938.21 320.56 712.67 21.79 714.63 21.79 938.21 317.97 938.21 320.56"/><polygon class="cls-87" points="938.21 323.16 710.71 21.79 712.67 21.79 938.21 320.56 938.21 323.16"/><polygon class="cls-88" points="938.21 325.75 708.75 21.79 710.71 21.79 938.21 323.16 938.21 325.75"/><polygon class="cls-89" points="938.21 328.34 706.79 21.79 708.75 21.79 938.21 325.75 938.21 328.34"/><polygon class="cls-90" points="938.21 330.94 704.83 21.79 706.79 21.79 938.21 328.34 938.21 330.94"/><polygon class="cls-91" points="938.21 333.53 702.88 21.79 704.83 21.79 938.21 330.94 938.21 333.53"/><polygon class="cls-92" points="938.21 336.13 700.92 21.79 702.88 21.79 938.21 333.53 938.21 336.13"/><polygon class="cls-93" points="938.21 338.72 698.96 21.79 700.92 21.79 938.21 336.13 938.21 338.72"/><polygon class="cls-94" points="938.21 341.32 697 21.79 698.96 21.79 938.21 338.72 938.21 341.32"/><polygon class="cls-95" points="938.21 343.91 695.04 21.79 697 21.79 938.21 341.32 938.21 343.91"/><polygon class="cls-96" points="938.21 346.5 693.08 21.79 695.04 21.79 938.21 343.91 938.21 346.5"/><polygon class="cls-97" points="938.21 349.1 691.12 21.79 693.08 21.79 938.21 346.5 938.21 349.1"/><polygon class="cls-98" points="938.21 351.69 689.17 21.79 691.12 21.79 938.21 349.1 938.21 351.69"/><polygon class="cls-99" points="938.21 354.29 687.21 21.79 689.17 21.79 938.21 351.69 938.21 354.29"/><polygon class="cls-100" points="938.21 356.88 685.25 21.79 687.21 21.79 938.21 354.29 938.21 356.88"/><polygon class="cls-101" points="938.21 359.48 683.29 21.79 685.25 21.79 938.21 356.88 938.21 359.48"/><polygon class="cls-102" points="938.21 362.07 681.33 21.79 683.29 21.79 938.21 359.48 938.21 362.07"/><polygon class="cls-103" points="938.21 364.66 679.37 21.79 681.33 21.79 938.21 362.07 938.21 364.66"/><polygon class="cls-104" points="938.21 367.26 677.42 21.79 679.37 21.79 938.21 364.66 938.21 367.26"/><polygon class="cls-105" points="938.21 369.85 675.46 21.79 677.42 21.79 938.21 367.26 938.21 369.85"/><polygon class="cls-106" points="938.21 372.45 673.5 21.79 675.46 21.79 938.21 369.85 938.21 372.45"/><polygon class="cls-107" points="938.21 375.04 671.54 21.79 673.5 21.79 938.21 372.45 938.21 375.04"/><polygon class="cls-108" points="938.21 377.63 669.58 21.79 671.54 21.79 938.21 375.04 938.21 377.63"/><polygon class="cls-109" points="938.21 380.23 667.62 21.79 669.58 21.79 938.21 377.63 938.21 380.23"/><polygon class="cls-110" points="938.21 382.82 665.66 21.79 667.62 21.79 938.21 380.23 938.21 382.82"/><polygon class="cls-111" points="938.21 385.42 663.71 21.79 665.66 21.79 938.21 382.82 938.21 385.42"/><polygon class="cls-112" points="938.21 388.01 661.75 21.79 663.71 21.79 938.21 385.42 938.21 388.01"/><polygon class="cls-113" points="938.21 390.61 659.79 21.79 661.75 21.79 938.21 388.01 938.21 390.61"/><polygon class="cls-114" points="938.21 393.2 657.83 21.79 659.79 21.79 938.21 390.61 938.21 393.2"/><polygon class="cls-115" points="938.21 395.8 655.87 21.79 657.83 21.79 938.21 393.2 938.21 395.8"/><polygon class="cls-116" points="938.21 398.39 653.91 21.79 655.87 21.79 938.21 395.8 938.21 398.39"/><polygon class="cls-117" points="938.21 400.98 651.96 21.79 653.91 21.79 938.21 398.39 938.21 400.98"/><polygon class="cls-118" points="938.21 403.58 650 21.79 651.96 21.79 938.21 400.98 938.21 403.58"/><polygon class="cls-119" points="938.21 406.17 648.04 21.79 650 21.79 938.21 403.58 938.21 406.17"/><polygon class="cls-120" points="938.21 408.77 646.08 21.79 648.04 21.79 938.21 406.17 938.21 408.77"/><polygon class="cls-121" points="938.21 411.36 644.12 21.79 646.08 21.79 938.21 408.77 938.21 411.36"/><polygon class="cls-122" points="938.21 413.95 642.16 21.79 644.12 21.79 938.21 411.36 938.21 413.95"/><polygon class="cls-123" points="938.21 416.55 640.21 21.79 642.16 21.79 938.21 413.95 938.21 416.55"/><polygon class="cls-124" points="938.21 419.14 638.25 21.79 640.21 21.79 938.21 416.55 938.21 419.14"/><polygon class="cls-125" points="938.21 421.74 636.29 21.79 638.25 21.79 938.21 419.14 938.21 421.74"/><polygon class="cls-126" points="938.21 424.33 634.33 21.79 636.29 21.79 938.21 421.74 938.21 424.33"/><polygon class="cls-127" points="938.21 426.93 632.37 21.79 634.33 21.79 938.21 424.33 938.21 426.93"/><polygon class="cls-128" points="938.21 427.49 937.23 428.23 630.41 21.79 632.37 21.79 938.21 426.93 938.21 427.49"/><polygon class="cls-129" points="937.23 428.23 935.99 429.17 628.46 21.79 630.41 21.79 937.23 428.23"/><polygon class="cls-130" points="935.99 429.17 934.74 430.11 626.5 21.79 628.46 21.79 935.99 429.17"/><polygon class="cls-131" points="934.74 430.11 933.49 431.05 624.54 21.79 626.5 21.79 934.74 430.11"/><polygon class="cls-132" points="933.49 431.05 932.24 431.99 622.58 21.79 624.54 21.79 933.49 431.05"/><polygon class="cls-133" points="932.24 431.99 931 432.93 620.62 21.79 622.58 21.79 932.24 431.99"/><polygon class="cls-134" points="931 432.93 929.75 433.88 618.66 21.79 620.62 21.79 931 432.93"/><polygon class="cls-135" points="929.75 433.88 928.5 434.82 616.71 21.79 618.66 21.79 929.75 433.88"/><polygon class="cls-136" points="928.5 434.82 927.25 435.76 614.75 21.79 616.71 21.79 928.5 434.82"/><polygon class="cls-137" points="927.25 435.76 926 436.7 612.79 21.79 614.75 21.79 927.25 435.76"/><polygon class="cls-138" points="926 436.7 924.76 437.64 610.83 21.79 612.79 21.79 926 436.7"/><polygon class="cls-139" points="924.76 437.64 923.51 438.58 608.87 21.79 610.83 21.79 924.76 437.64"/><polygon class="cls-140" points="923.51 438.58 922.26 439.53 606.91 21.79 608.87 21.79 923.51 438.58"/><polygon class="cls-141" points="922.26 439.53 921.01 440.47 604.95 21.79 606.91 21.79 922.26 439.53"/><polygon class="cls-142" points="921.01 440.47 919.77 441.41 603 21.79 604.95 21.79 921.01 440.47"/><polygon class="cls-143" points="919.77 441.41 918.52 442.35 601.04 21.79 603 21.79 919.77 441.41"/><polygon class="cls-144" points="918.52 442.35 917.27 443.29 599.08 21.79 601.04 21.79 918.52 442.35"/><polygon class="cls-145" points="917.27 443.29 916.02 444.23 597.12 21.79 599.08 21.79 917.27 443.29"/><polygon class="cls-146" points="916.02 444.23 914.78 445.18 595.16 21.79 597.12 21.79 916.02 444.23"/><polygon class="cls-147" points="914.78 445.18 913.53 446.12 593.2 21.79 595.16 21.79 914.78 445.18"/><polygon class="cls-148" points="913.53 446.12 912.28 447.06 591.25 21.79 593.2 21.79 913.53 446.12"/><polygon class="cls-149" points="912.28 447.06 911.03 448 589.29 21.79 591.25 21.79 912.28 447.06"/><polygon class="cls-150" points="911.03 448 909.79 448.94 587.33 21.79 589.29 21.79 911.03 448"/><polygon class="cls-151" points="909.79 448.94 908.54 449.88 585.37 21.79 587.33 21.79 909.79 448.94"/><polygon class="cls-152" points="908.54 449.88 907.29 450.83 583.41 21.79 585.37 21.79 908.54 449.88"/><polygon class="cls-153" points="907.29 450.83 906.04 451.77 581.45 21.79 583.41 21.79 907.29 450.83"/><polygon class="cls-154" points="906.04 451.77 904.8 452.71 579.5 21.79 581.45 21.79 906.04 451.77"/><polygon class="cls-155" points="904.8 452.71 903.55 453.65 577.54 21.79 579.5 21.79 904.8 452.71"/><polygon class="cls-156" points="903.55 453.65 902.3 454.59 575.58 21.79 577.54 21.79 903.55 453.65"/><polygon class="cls-157" points="902.3 454.59 901.05 455.54 573.62 21.79 575.58 21.79 902.3 454.59"/><polygon class="cls-158" points="901.05 455.54 899.81 456.48 571.66 21.79 573.62 21.79 901.05 455.54"/><polygon class="cls-159" points="899.81 456.48 898.56 457.42 569.7 21.79 571.66 21.79 899.81 456.48"/><polygon class="cls-160" points="898.56 457.42 897.31 458.36 567.74 21.79 569.7 21.79 898.56 457.42"/><polygon class="cls-161" points="897.31 458.36 896.07 459.3 565.79 21.79 567.74 21.79 897.31 458.36"/><polygon class="cls-162" points="896.07 459.3 894.82 460.24 563.83 21.79 565.79 21.79 896.07 459.3"/><polygon class="cls-163" points="894.82 460.24 893.57 461.19 561.87 21.79 563.83 21.79 894.82 460.24"/><polygon class="cls-164" points="893.57 461.19 892.32 462.13 560.46 22.52 561.43 21.79 561.87 21.79 893.57 461.19"/><rect class="cls-165" x="724.99" y="-32.61" width="1.56" height="550.81" transform="translate(0.24 486.29) rotate(-37.05)"/><rect class="cls-166" x="723.74" y="-31.67" width="1.56" height="550.81" transform="translate(-0.58 485.73) rotate(-37.05)"/><rect class="cls-167" x="722.49" y="-30.73" width="1.56" height="550.81" transform="translate(-1.4 485.17) rotate(-37.05)"/><rect class="cls-168" x="721.24" y="-29.78" width="1.56" height="550.81" transform="translate(-2.22 484.61) rotate(-37.05)"/><rect class="cls-169" x="720" y="-28.84" width="1.56" height="550.81" transform="translate(-3.04 484.05) rotate(-37.05)"/><rect class="cls-170" x="718.75" y="-27.9" width="1.56" height="550.81" transform="matrix(0.8, -0.6, 0.6, 0.8, -3.86, 483.48)"/><rect class="cls-171" x="717.5" y="-26.96" width="1.56" height="550.81" transform="translate(-4.68 482.92) rotate(-37.05)"/><rect class="cls-172" x="716.25" y="-26.02" width="1.56" height="550.81" transform="translate(-5.5 482.36) rotate(-37.05)"/><rect class="cls-173" x="715.01" y="-25.08" width="1.56" height="550.81" transform="matrix(0.8, -0.6, 0.6, 0.8, -6.32, 481.8)"/><rect class="cls-174" x="713.76" y="-24.13" width="1.56" height="550.81" transform="translate(-7.14 481.24) rotate(-37.05)"/><rect class="cls-175" x="712.51" y="-23.19" width="1.56" height="550.81" transform="translate(-7.96 480.68) rotate(-37.05)"/><rect class="cls-176" x="711.26" y="-22.25" width="1.56" height="550.81" transform="matrix(0.8, -0.6, 0.6, 0.8, -8.78, 480.11)"/><rect class="cls-177" x="710.02" y="-21.31" width="1.56" height="550.81" transform="matrix(0.8, -0.6, 0.6, 0.8, -9.6, 479.55)"/><rect class="cls-178" x="708.77" y="-20.37" width="1.56" height="550.81" transform="translate(-10.41 478.99) rotate(-37.05)"/><rect class="cls-179" x="707.52" y="-19.42" width="1.56" height="550.81" transform="translate(-11.23 478.43) rotate(-37.05)"/><rect class="cls-180" x="706.27" y="-18.48" width="1.56" height="550.81" transform="translate(-12.05 477.87) rotate(-37.05)"/><rect class="cls-181" x="705.03" y="-17.54" width="1.56" height="550.81" transform="translate(-12.87 477.31) rotate(-37.05)"/><rect class="cls-182" x="703.78" y="-16.6" width="1.56" height="550.81" transform="translate(-13.69 476.75) rotate(-37.05)"/><rect class="cls-183" x="702.53" y="-15.66" width="1.56" height="550.81" transform="translate(-14.51 476.19) rotate(-37.05)"/><rect class="cls-184" x="701.28" y="-14.72" width="1.56" height="550.81" transform="matrix(0.8, -0.6, 0.6, 0.8, -15.33, 475.62)"/><rect class="cls-185" x="700.04" y="-13.77" width="1.56" height="550.81" transform="translate(-16.15 475.06) rotate(-37.05)"/><rect class="cls-186" x="698.79" y="-12.83" width="1.56" height="550.81" transform="translate(-16.97 474.5) rotate(-37.05)"/><rect class="cls-187" x="697.54" y="-11.89" width="1.56" height="550.81" transform="translate(-17.79 473.94) rotate(-37.05)"/><rect class="cls-188" x="696.29" y="-10.95" width="1.56" height="550.81" transform="translate(-18.61 473.38) rotate(-37.05)"/><polygon class="cls-188" points="862.38 484.73 820.34 516.47 443.56 516.47 443.56 110.77 530.52 45.12 862.38 484.73"/></g><path class="cls-222" d="M690.87,471.87A202.85,202.85,0,0,1,490.8,302.12a204.93,204.93,0,0,1-2.67-33c0-112,90.79-202.75,202.74-202.75s202.75,90.77,202.75,202.75S802.85,471.87,690.87,471.87Z"/><path class="cls-223" d="M690.87,30c-132,0-239.09,107.05-239.09,239.12a240.16,240.16,0,0,0,4.81,47.92A239.1,239.1,0,0,0,690.87,508.24C822.94,508.24,930,401.16,930,269.13S822.94,30,690.87,30Z"/></g></g></svg>