<svg xmlns="http://www.w3.org/2000/svg" xmlns:xlink="http://www.w3.org/1999/xlink" viewBox="0 0 840.47 664"><defs><style>.cls-1{fill:url(#Gradiente_sem_nome_12);}</style><linearGradient id="Gradiente_sem_nome_12" y1="332" x2="840.47" y2="332" gradientUnits="userSpaceOnUse"><stop offset="0" stop-color="aqua"/><stop offset="1" stop-color="blue"/></linearGradient></defs><title>Ativo 4ESSE</title><g id="Camada_2" data-name="Camada 2"><g id="Camada_1-2" data-name="Camada 1"><path class="cls-1" d="M741.39,20a79.18,79.18,0,0,1,79.08,79.08V564.66a79.18,79.18,0,0,1-79.08,79.08H616.31A18.55,18.55,0,0,1,613,644a19.55,19.55,0,0,1-3.32-.26h-181a18.55,18.55,0,0,1-3.32.26,19.55,19.55,0,0,1-3.32-.26H237a18.55,18.55,0,0,1-3.32.26,19.47,19.47,0,0,1-3.32-.26H99.08A79.18,79.18,0,0,1,20,564.66V99.08A79.18,79.18,0,0,1,99.08,20H741.39M632,126.44H782.3V99.08a41.14,41.14,0,0,0-41-41H632v68.33m-187.54,0H593.91V58.11H444.47v68.33m-191.72,0H406.36V58.11H252.75v68.33m-194.64,0H214.58V58.11H99.08a41.14,41.14,0,0,0-41,41v27.36m0,373H782.36V164.62H58.11V499.45M632,605.63H741.32a41.14,41.14,0,0,0,41-41v-27.1H632v68.07m-187.54,0H593.91V537.56H444.47v68.07m-191.72,0H406.36V537.56H252.75v68.07m-153.67,0h115.5V537.56H58.11v27.1a41.14,41.14,0,0,0,41,41M368.65,220.09a18.94,18.94,0,0,1,10.87,3.42l133.74,93.28a19.06,19.06,0,0,1,.65,31.72L380.69,440.63a19.08,19.08,0,0,1-31.13-14.79V239.07h.06a18.92,18.92,0,0,1,19-19M741.39,0H99.08a98.63,98.63,0,0,0-70,29l-.06.06a98.63,98.63,0,0,0-29,70V564.66a99.18,99.18,0,0,0,99.08,99.08H229a43.15,43.15,0,0,0,9.46,0H420.67a43.15,43.15,0,0,0,9.46,0H608.28a43.15,43.15,0,0,0,9.46,0H741.39a99.18,99.18,0,0,0,99.08-99.08V99.08A99.18,99.18,0,0,0,741.39,0ZM652,78.11h89.31a21.15,21.15,0,0,1,21,21v7.36H652V78.11Zm-187.54,0H573.91v28.33H464.47V78.11Zm-191.72,0H386.36v28.33H272.75V78.11ZM78.11,106.44V99.08a21.14,21.14,0,0,1,21-21h95.5v28.33Zm0,78.18H762.36V479.45H78.11V184.62ZM652,557.56H762.3v7.1a21.15,21.15,0,0,1-21,21H652V557.56Zm-187.54,0H573.91v28.07H464.47V557.56Zm-191.72,0H386.36v28.07H272.75V557.56Zm-194.64,0H194.58v28.07H99.08a21.14,21.14,0,0,1-21-21v-7.1ZM368.65,200.09h0a39.18,39.18,0,0,0-32,16.59l-.14.2a39.06,39.06,0,0,0-6.9,22.13l-.06.06V425.84a39.07,39.07,0,0,0,63.06,30.85L525.29,365l.06,0a39.12,39.12,0,0,0,9.83-54.23l0-.06a39.45,39.45,0,0,0-10.77-10.48L391,207.1a38.82,38.82,0,0,0-22.31-7Z"/></g></g></svg>